<svg width="512" height="125" viewBox="0 0 512 125" fill="none" xmlns="http://www.w3.org/2000/svg">
<path d="M186.269 96.7742C178.37 96.7742 171.502 95.1522 165.666 91.9082C159.83 88.5952 155.311 84.0398 152.108 78.2421C148.977 72.3754 147.411 65.6804 147.411 58.1571C147.411 50.7029 149.013 44.1114 152.215 38.3827C155.418 32.654 159.83 28.2022 165.453 25.0272C171.146 21.7832 177.622 20.1613 184.882 20.1613C192.283 20.1613 198.795 21.7832 204.417 25.0272C210.04 28.2022 214.452 32.654 217.655 38.3827C220.928 44.1114 222.565 50.7374 222.565 58.2606C222.565 63.5752 221.64 68.5102 219.79 73.0656C218.011 77.6209 215.271 81.4861 211.57 84.661C207.94 87.836 203.35 90.0447 197.799 91.287L186.269 96.7742ZM184.882 87.974C190.148 87.974 194.703 86.6972 198.546 84.1434C202.46 81.5896 205.52 78.0696 207.727 73.5832C209.933 69.0969 211.036 63.9203 211.036 58.0536C211.036 52.3939 209.933 47.4244 207.727 43.1451C205.52 38.7968 202.46 35.4493 198.546 33.1026C194.632 30.6869 190.077 29.479 184.882 29.479C179.686 29.479 175.131 30.6869 171.217 33.1026C167.374 35.4493 164.349 38.7623 162.143 43.0416C160.008 47.3209 158.941 52.3249 158.941 58.0536C158.941 63.9894 160.044 69.2004 162.25 73.6868C164.456 78.1041 167.481 81.5896 171.324 84.1434C175.238 86.6972 179.757 87.974 184.882 87.974ZM186.269 96.7742L184.988 89.3199L225.768 86.7317V95.7389C221.355 95.7389 217.548 95.7734 214.345 95.8424C211.214 95.9804 208.26 96.1185 205.485 96.2565C202.78 96.3945 199.934 96.4981 196.945 96.5671C193.956 96.7051 190.397 96.7742 186.269 96.7742Z" fill="#0F172A"></path>
<path d="M254.133 96.7742C250.504 96.7742 247.301 96.0494 244.526 94.6C241.75 93.0816 239.579 91.0109 238.014 88.3882C236.519 85.7654 235.772 82.763 235.772 79.381V42.9381H246.874V76.8962C246.874 80.5543 247.799 83.2806 249.65 85.0752C251.5 86.8697 254.133 87.767 257.549 87.767C260.61 87.767 263.314 87.0768 265.663 85.6963C268.082 84.3159 269.968 82.4179 271.321 80.0021C272.744 77.5174 273.456 74.653 273.456 71.4091L274.843 84.0399C273.064 87.905 270.324 91.0109 266.623 93.3576C262.994 95.6353 258.83 96.7742 254.133 96.7742ZM273.883 95.7389V83.3151H273.456V42.9381H284.451V95.7389H273.883Z" fill="#0F172A"></path>
<path d="M332.905 95.7389C332.549 94.4275 332.3 92.978 332.158 91.3906C332.087 89.8031 332.051 87.8705 332.051 85.5928H331.518V60.4348C331.518 57.0528 330.628 54.5335 328.849 52.877C327.141 51.1515 324.401 50.2888 320.629 50.2888C316.999 50.2888 314.081 50.979 311.875 52.3594C309.74 53.7398 308.494 55.7069 308.139 58.2606H297.57C298.068 53.2912 300.381 49.3225 304.509 46.3546C308.637 43.3867 314.152 41.9028 321.056 41.9028C328.173 41.9028 333.51 43.5247 337.069 46.7687C340.627 49.9437 342.406 54.6371 342.406 60.8489V85.5928C342.406 87.1803 342.513 88.8023 342.727 90.4588C342.94 92.1153 343.26 93.8753 343.687 95.7389H332.905ZM314.117 96.7742C308.566 96.7742 304.153 95.4628 300.879 92.84C297.606 90.1482 295.969 86.5246 295.969 81.9692C295.969 77.2758 297.677 73.5832 301.093 70.8914C304.58 68.1306 309.562 66.267 316.038 65.3008L333.973 62.5054V70.0632L317.746 72.5479C314.117 73.1001 311.377 74.0319 309.526 75.3432C307.747 76.6546 306.858 78.5527 306.858 81.0375C306.858 83.4532 307.676 85.2822 309.313 86.5246C311.021 87.6979 313.476 88.2846 316.679 88.2846C320.949 88.2846 324.472 87.2838 327.247 85.2822C330.094 83.2806 331.518 80.7614 331.518 77.7245L332.905 85.3858C331.624 89.0438 329.347 91.8737 326.073 93.8753C322.799 95.8079 318.814 96.7742 314.117 96.7742Z" fill="#0F172A"></path>
<path d="M396.316 95.7389V83.6257L397.383 83.9363C396.245 87.8705 393.896 91.0109 390.338 93.3576C386.779 95.6353 382.509 96.7742 377.527 96.7742C372.617 96.7742 368.311 95.6353 364.61 93.3576C360.98 91.08 358.134 87.905 356.07 83.8328C354.077 79.7606 353.081 74.9981 353.081 69.5455C353.081 64.0239 354.113 59.1924 356.177 55.0512C358.24 50.9099 361.123 47.7005 364.824 45.4228C368.524 43.1451 372.866 42.0063 377.847 42.0063C383.043 42.0063 387.313 43.2141 390.658 45.6299C394.074 47.9766 396.316 51.2896 397.383 55.5688L395.889 55.7759V21.1966H406.884V95.7389H396.316ZM380.303 87.767C385.213 87.767 389.092 86.145 391.939 82.901C394.786 79.588 396.209 75.0327 396.209 69.2349C396.209 63.5752 394.75 59.1234 391.832 55.8794C388.985 52.5664 385.107 50.9099 380.196 50.9099C375.357 50.9099 371.513 52.5664 368.667 55.8794C365.891 59.1234 364.503 63.6788 364.503 69.5455C364.503 75.2742 365.891 79.7606 368.667 83.0045C371.513 86.1795 375.392 87.767 380.303 87.767Z" fill="#0F172A"></path>
<path d="M422.5 95.7389V42.9381H433.069V56.0865H433.602V95.7389H422.5ZM433.602 68.1996L432.215 55.6724C433.496 51.186 435.702 47.7695 438.833 45.4228C441.965 43.0761 445.701 41.9028 450.042 41.9028C451.679 41.9028 452.818 42.0408 453.459 42.3169V52.4629C453.103 52.3249 452.605 52.2558 451.964 52.2558C451.323 52.1868 450.541 52.1523 449.615 52.1523C444.278 52.1523 440.257 53.4982 437.552 56.19C434.919 58.8818 433.602 62.885 433.602 68.1996Z" fill="#0F172A"></path>
<path d="M495.432 95.7389C495.077 94.4275 494.828 92.978 494.685 91.3906C494.614 89.8031 494.578 87.8705 494.578 85.5928H494.045V60.4348C494.045 57.0528 493.155 54.5335 491.376 52.877C489.668 51.1515 486.928 50.2888 483.156 50.2888C479.526 50.2888 476.608 50.979 474.402 52.3594C472.267 53.7398 471.022 55.7069 470.666 58.2606H460.097C460.595 53.2912 462.908 49.3225 467.036 46.3546C471.164 43.3867 476.679 41.9028 483.583 41.9028C490.7 41.9028 496.037 43.5247 499.596 46.7687C503.154 49.9437 504.933 54.6371 504.933 60.8489V85.5928C504.933 87.1803 505.04 88.8023 505.254 90.4588C505.467 92.1153 505.787 93.8753 506.214 95.7389H495.432ZM476.644 96.7742C471.093 96.7742 466.68 95.4628 463.407 92.84C460.133 90.1482 458.496 86.5246 458.496 81.9692C458.496 77.2758 460.204 73.5832 463.62 70.8914C467.107 68.1306 472.089 66.267 478.565 65.3008L496.5 62.5054V70.0632L480.274 72.5479C476.644 73.1001 473.904 74.0319 472.054 75.3432C470.274 76.6546 469.385 78.5527 469.385 81.0375C469.385 83.4532 470.203 85.2822 471.84 86.5246C473.548 87.6979 476.003 88.2846 479.206 88.2846C483.476 88.2846 486.999 87.2838 489.775 85.2822C492.621 83.2806 494.045 80.7614 494.045 77.7245L495.432 85.3858C494.151 89.0438 491.874 91.8737 488.6 93.8753C485.326 95.8079 481.341 96.7742 476.644 96.7742Z" fill="#0F172A"></path>
<path d="M67.4494 86.3085C69.9509 88.811 71.1169 92.352 70.5921 95.8515L68.4045 110.433C67.9514 113.452 64.2539 114.669 62.0959 112.511L47.137 97.549L47.137 91.6527C47.137 89.5988 45.4701 87.9315 43.4166 87.9315L37.5214 87.9315L22.565 72.9724C20.4071 70.814 21.6243 67.1158 24.6422 66.6626L39.2211 64.4746C42.7206 63.9494 46.2627 65.1178 48.7649 67.6205L67.4494 86.3085Z" fill="url(#paint0_linear_6197_2094)"></path>
<path d="M77.6839 38.6909C75.1824 36.1884 74.0164 32.6474 74.5411 29.1479L76.7287 14.5662C77.1819 11.5477 80.8794 10.3303 83.0374 12.4886L97.9962 27.4504L97.9962 33.3467C97.9962 35.4006 99.6631 37.0679 101.717 37.0679L107.612 37.0679L122.568 52.027C124.726 54.1854 123.509 57.8836 120.491 58.3368L105.912 60.5248C102.413 61.05 98.8706 59.8816 96.3684 57.3789L77.6839 38.6909Z" fill="url(#paint1_linear_6197_2094)"></path>
<path d="M48.7107 57.4335C46.2087 59.9355 42.6683 61.1017 39.1694 60.5768L24.5906 58.3888C21.5726 57.9356 20.3554 54.2374 22.5134 52.079L37.4722 37.1173L43.3675 37.1173C45.421 37.1173 47.0879 35.4501 47.0879 33.3961L47.0879 27.4998L62.0443 12.5406C64.2022 10.3823 67.8997 11.5997 68.3529 14.6182L70.5405 29.1999C71.0655 32.7 69.8974 36.2428 67.3952 38.7455L48.7107 57.4335Z" fill="url(#paint2_linear_6197_2094)"></path>
<path d="M96.3193 67.6699C98.8213 65.1679 102.362 64.0018 105.86 64.5266L120.439 66.7146C123.457 67.1679 124.675 70.866 122.517 73.0244L107.558 87.9861L101.662 87.9861C99.6089 87.9861 97.942 89.6533 97.942 91.7073L97.942 97.6036L82.9857 112.563C80.8277 114.721 77.1302 113.504 76.6771 110.485L74.4895 95.9035C73.9644 92.4034 75.1325 88.8607 77.6348 86.3579L96.3193 67.6699Z" fill="url(#paint3_linear_6197_2094)"></path>
<defs>
<linearGradient id="paint0_linear_6197_2094" x1="69.8859" y1="109.887" x2="119.851" y2="59.9313" gradientUnits="userSpaceOnUse">
<stop stop-color="#3B82F6"></stop>
<stop offset="1" stop-color="#A37FF6"></stop>
</linearGradient>
<linearGradient id="paint1_linear_6197_2094" x1="69.8859" y1="109.887" x2="119.851" y2="59.9313" gradientUnits="userSpaceOnUse">
<stop stop-color="#3B82F6"></stop>
<stop offset="1" stop-color="#A37FF6"></stop>
</linearGradient>
<linearGradient id="paint2_linear_6197_2094" x1="69.8859" y1="109.887" x2="119.851" y2="59.9313" gradientUnits="userSpaceOnUse">
<stop stop-color="#3B82F6"></stop>
<stop offset="1" stop-color="#A37FF6"></stop>
</linearGradient>
<linearGradient id="paint3_linear_6197_2094" x1="69.8859" y1="109.887" x2="119.851" y2="59.9313" gradientUnits="userSpaceOnUse">
<stop stop-color="#3B82F6"></stop>
<stop offset="1" stop-color="#A37FF6"></stop>
</linearGradient>
</defs>
</svg>